<svg aria-hidden="true" style="position: absolute; width: 0; height: 0; overflow: hidden;" version="1.1" xmlns="http://www.w3.org/2000/svg" xmlns:xlink="http://www.w3.org/1999/xlink">
<defs>
<symbol id="icon-wool-ball" viewBox="0 0 32 32">
<path d="M3.013 2.194c-1.181 0.587-1.069 2.337 0.181 2.775 0.581 0.206 1.163 0.056 1.575-0.406 0.537-0.6 0.563-1.337 0.063-1.987-0.362-0.475-1.25-0.663-1.819-0.381z"></path>
<path d="M27.613 2.219c-0.919 0.481-1.075 1.725-0.3 2.425 1.169 1.056 2.881-0.069 2.425-1.587-0.094-0.325-0.425-0.706-0.756-0.863-0.387-0.188-0.975-0.175-1.369 0.025z"></path>
<path d="M17.413 4.794c-0.019 0.063-0.131 0.444-0.256 0.856-1.644 5.475-2.056 11.437-1.181 17.163 0.162 1.044 0.525 2.875 0.669 3.381l0.081 0.275h0.938c0.913-0.006 2.063-0.125 2.125-0.225 0.012-0.025-0.1-0.675-0.256-1.444-0.288-1.444-0.525-3.063-0.669-4.581-0.125-1.344-0.106-5.65 0.031-7 0.275-2.694 0.762-5.275 1.444-7.581 0.081-0.281 0.131-0.525 0.106-0.544-0.119-0.069-1.375-0.287-2.006-0.344-0.95-0.081-0.988-0.081-1.025 0.044z"></path>
<path d="M15.719 4.869c-0.819 0.15-1.688 0.4-2.338 0.681-0.613 0.269-0.512 0.081-0.975 1.919-0.463 1.862-1 5.094-0.869 5.213 0.094 0.088 3.019 0.419 3.175 0.363 0.050-0.019 0.1-0.219 0.125-0.525 0.169-1.887 0.794-4.975 1.444-7.138 0.087-0.294 0.156-0.55 0.156-0.581 0-0.063 0.050-0.063-0.719 0.069z"></path>
<path d="M5.35 5.306l-0.3 0.306 2.837 3.2 0.219-0.281c0.119-0.156 0.219-0.35 0.225-0.431 0.012-0.112-0.306-0.513-1.287-1.625-0.719-0.813-1.325-1.475-1.35-1.475s-0.175 0.138-0.344 0.306z"></path>
<path d="M25.637 5.7l-0.631 0.706 0.325 0.294c0.181 0.162 0.337 0.3 0.356 0.3 0.044 0 1.25-1.356 1.25-1.406 0-0.037-0.556-0.556-0.625-0.581-0.025-0.006-0.331 0.3-0.675 0.688z"></path>
<path d="M21.313 5.594c-0.194 0.513-0.7 2.569-0.962 3.938-0.8 4.137-0.9 8.712-0.281 13 0.15 1.087 0.606 3.356 0.681 3.431 0.137 0.137 2.3-0.85 2.856-1.3 0.006-0.006-0.069-0.488-0.169-1.069-0.75-4.387-0.75-9.056 0.006-13.456 0.156-0.925 0.55-2.819 0.65-3.144 0.025-0.075-0.125-0.206-0.544-0.481-0.563-0.369-1.938-1.075-2.1-1.075-0.044 0-0.106 0.069-0.137 0.156z"></path>
<path d="M11.369 6.65c-0.938 0.644-1.988 1.681-2.7 2.669-0.4 0.563-1.188 2.031-1.263 2.375-0.037 0.156-0.037 0.156 0.95 0.387 0.544 0.131 1.2 0.275 1.456 0.325s0.531 0.106 0.606 0.125c0.156 0.037 0.137 0.106 0.306-1.156 0.137-1.056 0.481-2.894 0.75-3.994 0.119-0.494 0.213-0.9 0.2-0.912-0.012-0.006-0.15 0.069-0.306 0.181z"></path>
<path d="M24.875 7.662c0 0.019-0.069 0.344-0.156 0.719-0.281 1.262-0.744 4.131-0.675 4.2 0.038 0.044 1.456-0.244 2.606-0.525 1.019-0.25 1.1-0.275 1.063-0.4-0.087-0.331-0.881-1.813-1.244-2.313-0.581-0.819-1.594-1.888-1.594-1.681z"></path>
<path d="M27.156 12.881c-0.563 0.144-1.394 0.325-3.069 0.656-0.175 0.031-0.2 0.2-0.25 1.631-0.038 0.988-0.031 1.144 0.050 1.144 0.3 0 2.081-0.356 3.512-0.7l1.056-0.256-0.044-0.6c-0.044-0.619-0.156-1.331-0.281-1.806-0.087-0.313-0.063-0.313-0.975-0.069z"></path>
<path d="M7.037 12.8c-0.081 0.137-0.294 1.394-0.331 1.969l-0.037 0.656 0.931 0.219c1.15 0.275 1.956 0.431 3.212 0.637 1.088 0.175 3.069 0.406 3.506 0.406h0.287l0.037-1.331c0.019-0.725 0.025-1.331 0.019-1.344-0.012-0.006-0.325-0.044-0.7-0.075-1.9-0.175-4.069-0.531-5.894-0.969-0.987-0.238-0.987-0.238-1.031-0.169z"></path>
<path d="M28.031 16.413c-0.781 0.219-2.85 0.637-3.962 0.813l-0.275 0.038 0.038 1.094c0.019 0.6 0.050 1.106 0.069 1.131 0.075 0.069 2.8-0.5 3.756-0.788 0.356-0.106 0.375-0.125 0.45-0.394 0.163-0.544 0.375-2 0.288-1.988-0.025 0-0.188 0.044-0.363 0.094z"></path>
<path d="M6.688 16.387c0 0.381 0.338 2.15 0.431 2.25 0.063 0.069 1.956 0.525 3.037 0.731 1.694 0.319 4.4 0.656 4.5 0.556 0.019-0.019 0.019-0.538-0.006-1.156l-0.044-1.125-0.881-0.075c-1.181-0.1-2.925-0.337-4.137-0.563-0.887-0.169-2.5-0.512-2.787-0.606-0.063-0.019-0.112-0.025-0.112-0.012z"></path>
<path d="M27 19.819c-0.606 0.15-2.1 0.469-2.637 0.563l-0.425 0.069 0.031 0.231c0.019 0.125 0.075 0.606 0.131 1.069 0.113 0.938 0.319 2.188 0.363 2.238 0.087 0.081 1.331-1.206 1.875-1.944 0.494-0.675 1.288-2.087 1.288-2.294 0-0.081-0.056-0.075-0.625 0.069z"></path>
<path d="M7.5 19.781c0 0.075 0.644 1.306 0.856 1.637 0.287 0.462 0.706 1.006 1.131 1.488 0.375 0.413 1.387 1.344 1.475 1.344 0.031 0 0.037-0.106 0.012-0.238-0.119-0.681-0.35-2.319-0.419-2.919-0.037-0.381-0.075-0.694-0.081-0.7-0.012-0.012-0.425-0.1-0.919-0.2-0.5-0.1-1.137-0.244-1.412-0.313-0.525-0.137-0.644-0.156-0.644-0.1z"></path>
<path d="M11.469 20.913c0.137 1.244 0.506 3.625 0.631 4.031 0.031 0.119 0.519 0.387 1.281 0.712 0.519 0.225 1.963 0.656 2.2 0.656 0.144 0 0.15 0.087-0.162-1.406-0.206-0.988-0.475-2.663-0.575-3.581-0.025-0.219-0.075-0.406-0.119-0.419-0.037-0.006-0.688-0.081-1.444-0.156-0.756-0.081-1.481-0.156-1.613-0.175l-0.244-0.025 0.044 0.363z"></path>
<path d="M7.369 26.344c-2.119 2.394-2.156 2.444-1.862 2.756 0.175 0.181 0.425 0.194 0.606 0.025 0.306-0.288 3.856-4.337 3.856-4.4 0-0.069-0.544-0.6-0.606-0.6-0.019 0-0.919 1-1.994 2.219z"></path>
<path d="M23.519 25.8l-0.387 0.238 1.381 1.563c0.756 0.856 1.406 1.575 1.45 1.6 0.137 0.094 0.394 0.050 0.525-0.094 0.294-0.313 0.244-0.394-1.206-2.031-0.738-0.831-1.35-1.512-1.363-1.512-0.006 0.006-0.188 0.113-0.4 0.238z"></path>
<path d="M21.206 26.831l-0.387 0.137 0.494 0.594c0.431 0.512 0.5 0.625 0.5 0.831 0 0.131-0.031 0.294-0.069 0.369-0.163 0.3-0.137 0.3-5.619 0.3-5.044 0-5.125 0-5.25 0.125-0.162 0.163-0.162 0.506-0.012 0.65 0.106 0.094 0.544 0.1 5.494 0.087l5.375-0.019 0.306-0.188c0.619-0.387 0.887-1.219 0.6-1.863-0.163-0.369-0.819-1.169-0.944-1.163-0.056 0-0.275 0.063-0.488 0.137z"></path>
</symbol>
</defs>
</svg>
